<svg width="15" height="22" viewBox="0 0 15 22" fill="none" xmlns="http://www.w3.org/2000/svg">
<path d="M7.2 0C7.07461 0.000175521 6.95102 0.029822 6.8392 0.0865475C6.72738 0.143273 6.63045 0.225489 6.55625 0.326562C6.54818 0.336787 6.54037 0.347207 6.53281 0.357812C4.64392 2.78846 0 10.4188 0 14.4C0 18.3768 3.2232 21.6 7.2 21.6C11.1768 21.6 14.4 18.3768 14.4 14.4C14.4 10.4233 9.7664 2.80835 7.87344 0.36875C7.87322 0.368473 7.87365 0.367465 7.87344 0.367188C7.86397 0.353338 7.85407 0.33979 7.84375 0.326562C7.76955 0.225489 7.67262 0.143273 7.5608 0.0865475C7.44898 0.029822 7.32539 0.000175521 7.2 0ZM2.4 13.6C2.8424 13.6 3.2 13.9576 3.2 14.4C3.2 16.088 4.27199 17.6024 5.86719 18.1672C6.28319 18.3144 6.50113 18.7707 6.35313 19.1875C6.23712 19.5155 5.9296 19.7203 5.6 19.7203C5.512 19.7203 5.42081 19.7062 5.33281 19.675C3.10001 18.8854 1.6 16.7648 1.6 14.4C1.6 13.9576 1.9576 13.6 2.4 13.6Z" fill="white"/>
</svg>
