<svg width="11" height="11" viewBox="0 0 11 11" fill="none" xmlns="http://www.w3.org/2000/svg">
<path fill-rule="evenodd" clip-rule="evenodd" d="M10.7908 0.28897C11.0986 0.640664 11.0629 1.17523 10.7112 1.48297L6.47487 5.18977L10.7112 8.89657C11.0629 9.20431 11.0986 9.73888 10.7908 10.0906C10.4831 10.4423 9.94852 10.4779 9.59683 10.1702L4.63271 5.82657C4.44908 5.66589 4.34375 5.43377 4.34375 5.18977C4.34375 4.94577 4.44908 4.71365 4.63271 4.55297L9.59683 0.20937C9.94852 -0.0983615 10.4831 -0.0627235 10.7908 0.28897Z" fill="#8E9093"/>
<path fill-rule="evenodd" clip-rule="evenodd" d="M0.209423 0.28897C-0.098309 0.640664 -0.0626707 1.17523 0.289022 1.48297L4.52537 5.18977L0.289022 8.89657C-0.0626707 9.20431 -0.098309 9.73888 0.209423 10.0906C0.517155 10.4423 1.05172 10.4779 1.40342 10.1702L6.36754 5.82657C6.55116 5.66589 6.65649 5.43377 6.65649 5.18977C6.65649 4.94577 6.55116 4.71365 6.36754 4.55297L1.40342 0.20937C1.05172 -0.0983615 0.517155 -0.0627235 0.209423 0.28897Z" fill="#8E9093"/>
</svg>
