<svg width="15" height="16" viewBox="0 0 15 16" fill="none" xmlns="http://www.w3.org/2000/svg">
<path d="M7.13301 0C5.85988 0 4.83499 1.0016 4.7336 2.25H0.570511C0.495973 2.24895 0.421969 2.26272 0.3528 2.29051C0.28363 2.31831 0.220674 2.35957 0.167592 2.41191C0.114509 2.46425 0.072357 2.52661 0.0435864 2.59538C0.0148158 2.66415 0 2.73795 0 2.8125C0 2.88705 0.0148158 2.96085 0.0435864 3.02962C0.072357 3.09839 0.114509 3.16075 0.167592 3.21309C0.220674 3.26543 0.28363 3.30669 0.3528 3.33449C0.421969 3.36228 0.495973 3.37605 0.570511 3.375H1.20039L2.46895 13.2012C2.60132 14.2264 3.4811 15 4.5146 15H6.99532C6.67469 14.6666 6.40199 14.2886 6.18599 13.875H4.51387C4.044 13.875 3.6448 13.5234 3.58443 13.0576L2.33492 3.375H11.9304L11.4829 6.84814C11.8642 6.92539 12.2267 7.05128 12.5698 7.21216L13.0649 3.375H13.6955C13.77 3.37605 13.8441 3.36228 13.9132 3.33449C13.9824 3.30669 14.0453 3.26543 14.0984 3.21309C14.1515 3.16075 14.1937 3.09839 14.2224 3.02962C14.2512 2.96085 14.266 2.88705 14.266 2.8125C14.266 2.73795 14.2512 2.66415 14.2224 2.59538C14.1937 2.52661 14.1515 2.46425 14.0984 2.41191C14.0453 2.35957 13.9824 2.31831 13.9132 2.29051C13.8441 2.26272 13.77 2.24895 13.6955 2.25H9.53243C9.43104 1.0016 8.40614 0 7.13301 0ZM7.13301 1.125C7.79753 1.125 8.31499 1.61364 8.40816 2.25H5.85787C5.95103 1.61364 6.4685 1.125 7.13301 1.125ZM10.508 7.5C8.22989 7.5 6.38301 9.34688 6.38301 11.625C6.38301 13.9031 8.22989 15.75 10.508 15.75C12.7861 15.75 14.633 13.9031 14.633 11.625C14.633 9.34688 12.7861 7.5 10.508 7.5ZM12.383 9.375C12.4255 9.375 12.4677 9.38478 12.5083 9.39917C12.5227 9.4043 12.5362 9.412 12.55 9.41895C12.5848 9.4365 12.6191 9.45576 12.6481 9.48486C12.679 9.51569 12.6999 9.55244 12.7177 9.5896C12.7229 9.60036 12.729 9.61071 12.7331 9.62183C12.7635 9.70479 12.764 9.79524 12.7338 9.87817C12.7294 9.89041 12.722 9.90152 12.7163 9.91333C12.6985 9.94953 12.6783 9.98506 12.6481 10.0151L11.0383 11.625C11.8614 12.4478 12.6151 13.2019 12.6481 13.2349C12.6777 13.2644 12.6972 13.2998 12.7148 13.3352C12.7212 13.3482 12.729 13.3605 12.7338 13.374C12.7485 13.415 12.758 13.457 12.758 13.5C12.758 13.5425 12.7482 13.5847 12.7338 13.6252C12.7287 13.6397 12.721 13.6532 12.7141 13.667C12.6965 13.7018 12.6773 13.7361 12.6481 13.7651C12.6173 13.796 12.5806 13.8169 12.5434 13.8347C12.5326 13.8399 12.5223 13.846 12.5112 13.8501C12.4282 13.8805 12.3378 13.881 12.2548 13.8508C12.2426 13.8464 12.2315 13.839 12.2197 13.8333C12.1835 13.8155 12.148 13.7953 12.1179 13.7651L10.508 12.1553L8.89815 13.7651C8.86861 13.7947 8.83322 13.8142 8.79781 13.8318C8.78484 13.8382 8.77247 13.846 8.75899 13.8508C8.71804 13.8655 8.67598 13.875 8.63301 13.875C8.59049 13.875 8.54829 13.8652 8.50777 13.8508C8.49336 13.8457 8.47984 13.838 8.46602 13.8311C8.43123 13.8135 8.39691 13.7942 8.36788 13.7651C8.33705 13.7343 8.31616 13.6976 8.2983 13.6604C8.29315 13.6496 8.28698 13.6393 8.28291 13.6282C8.25254 13.5452 8.25199 13.4548 8.28218 13.3718C8.28664 13.3596 8.29398 13.3485 8.29976 13.3367C8.31751 13.3005 8.33772 13.2649 8.36788 13.2349C8.40088 13.2019 9.15461 12.4478 9.97774 11.625L8.36788 10.0151C8.33834 9.9856 8.31886 9.95021 8.30122 9.91479C8.29481 9.90183 8.287 9.88946 8.28218 9.87598C8.26748 9.83503 8.25801 9.79297 8.25801 9.75C8.25801 9.70748 8.26779 9.66528 8.28218 9.62476C8.28731 9.61034 8.29501 9.59683 8.30196 9.58301C8.31951 9.54822 8.33877 9.51389 8.36788 9.48486C8.40299 9.44975 8.44424 9.42406 8.48726 9.40576C8.49393 9.40293 8.50097 9.4016 8.50777 9.39917C8.54351 9.38642 8.58017 9.3795 8.61763 9.37793C8.62594 9.37759 8.63422 9.37626 8.64253 9.37646C8.68504 9.37755 8.72757 9.38515 8.76778 9.40063C8.77466 9.40329 8.78081 9.40781 8.78755 9.41089C8.82729 9.42901 8.86548 9.45211 8.89815 9.48486C8.93115 9.51786 9.68526 10.2716 10.508 11.0947L12.1179 9.48486C12.1474 9.45533 12.1828 9.43585 12.2182 9.41821C12.2312 9.4118 12.2436 9.40399 12.257 9.39917C12.298 9.38447 12.34 9.375 12.383 9.375Z" fill="#FF5E54"/>
</svg>
