<svg width="15" height="15" viewBox="0 0 15 15" fill="none" xmlns="http://www.w3.org/2000/svg">
<path d="M11.6245 0C10.9515 0 10.2786 0.25514 9.76856 0.765381L1.46802 9.06519C1.31053 9.22268 1.19519 9.41853 1.13404 9.63354L0.0214897 13.5293C-0.00594791 13.6257 -0.00713303 13.7277 0.018057 13.8247C0.043247 13.9217 0.0938974 14.0102 0.164769 14.0811C0.235641 14.152 0.32416 14.2026 0.42117 14.2278C0.51818 14.253 0.620159 14.2518 0.716558 14.2244L4.61304 13.1118C4.61329 13.1116 4.61353 13.1113 4.61378 13.1111C4.82735 13.0497 5.02272 12.9358 5.18067 12.7778L13.4805 4.47729C14.5009 3.45687 14.5009 1.7858 13.4805 0.765381C12.9705 0.25514 12.2975 0 11.6245 0ZM11.6245 1.11841C12.0073 1.11841 12.3896 1.26591 12.6843 1.56079C12.6846 1.56079 12.6848 1.56079 12.6851 1.56079C13.2756 2.15137 13.2756 3.09131 12.6851 3.68188L11.9578 4.40918L9.83668 2.28809L10.564 1.56079C10.8587 1.26591 11.2417 1.11841 11.6245 1.11841ZM9.04127 3.0835L11.1624 5.20459L4.38453 11.9824C4.36254 12.0043 4.33469 12.021 4.30323 12.03L1.38086 12.865L2.21583 9.94189C2.21583 9.94165 2.21583 9.94141 2.21583 9.94116C2.22442 9.91093 2.24017 9.88385 2.26343 9.8606L9.04127 3.0835Z" fill="#53B051"/>
</svg>
