<svg width="16" height="16" viewBox="0 0 16 16" fill="none" xmlns="http://www.w3.org/2000/svg">
<path d="M15.1961 0.000257172C15.1735 0.000932918 15.151 0.00283458 15.1286 0.00595379H9.375C9.29218 0.00478251 9.20995 0.0200832 9.1331 0.0509668C9.05624 0.0818504 8.98629 0.127701 8.92731 0.185854C8.86833 0.244007 8.82149 0.313302 8.78953 0.389713C8.75756 0.466123 8.7411 0.548126 8.7411 0.630954C8.7411 0.713782 8.75756 0.795784 8.78953 0.872195C8.82149 0.948606 8.86833 1.0179 8.92731 1.07605C8.98629 1.13421 9.05624 1.18006 9.1331 1.21094C9.20995 1.24182 9.29218 1.25713 9.375 1.25595H13.6995L7.26644 7.68906C7.20646 7.74665 7.15857 7.81563 7.12558 7.89196C7.09259 7.96829 7.07516 8.05044 7.07432 8.13359C7.07347 8.21674 7.08923 8.29922 7.12066 8.3762C7.15209 8.45319 7.19856 8.52313 7.25736 8.58193C7.31616 8.64073 7.3861 8.6872 7.46308 8.71863C7.54007 8.75006 7.62255 8.76582 7.7057 8.76497C7.78885 8.76413 7.871 8.7467 7.94733 8.71371C8.02366 8.68072 8.09264 8.63283 8.15023 8.57285L14.5833 2.13974V6.46429C14.5822 6.54711 14.5975 6.62933 14.6283 6.70619C14.6592 6.78304 14.7051 6.853 14.7632 6.91198C14.8214 6.97096 14.8907 7.01779 14.9671 7.04976C15.0435 7.08173 15.1255 7.09819 15.2083 7.09819C15.2912 7.09819 15.3732 7.08173 15.4496 7.04976C15.526 7.01779 15.5953 6.97096 15.6534 6.91198C15.7116 6.853 15.7574 6.78304 15.7883 6.70619C15.8192 6.62933 15.8345 6.54711 15.8333 6.46429V0.709893C15.8456 0.61997 15.8382 0.528444 15.8116 0.441676C15.785 0.354908 15.7398 0.274981 15.6791 0.207448C15.6185 0.139916 15.5439 0.0864001 15.4605 0.0506199C15.3771 0.0148397 15.2868 -0.00234601 15.1961 0.000257172ZM3.125 1.25595C1.40646 1.25595 0 2.66241 0 4.38095V12.7143C0 14.4328 1.40646 15.8393 3.125 15.8393H11.4583C13.1769 15.8393 14.5833 14.4328 14.5833 12.7143V8.54762C14.5845 8.4648 14.5692 8.38257 14.5383 8.30572C14.5074 8.22886 14.4616 8.15891 14.4034 8.09993C14.3453 8.04095 14.276 7.99412 14.1996 7.96215C14.1232 7.93018 14.0412 7.91372 13.9583 7.91372C13.8755 7.91372 13.7935 7.93018 13.7171 7.96215C13.6407 7.99412 13.5714 8.04095 13.5132 8.09993C13.4551 8.15891 13.4092 8.22886 13.3783 8.30572C13.3475 8.38257 13.3322 8.4648 13.3333 8.54762V12.7143C13.3333 13.7574 12.5015 14.5893 11.4583 14.5893H3.125C2.08188 14.5893 1.25 13.7574 1.25 12.7143V4.38095C1.25 3.33783 2.08188 2.50595 3.125 2.50595H7.29167C7.37449 2.50713 7.45671 2.49182 7.53357 2.46094C7.61042 2.43006 7.68037 2.38421 7.73935 2.32605C7.79834 2.2679 7.84517 2.19861 7.87714 2.12219C7.90911 2.04578 7.92557 1.96378 7.92557 1.88095C7.92557 1.79813 7.90911 1.71612 7.87714 1.63971C7.84517 1.5633 7.79834 1.49401 7.73935 1.43585C7.68037 1.3777 7.61042 1.33185 7.53357 1.30097C7.45671 1.27008 7.37449 1.25478 7.29167 1.25595H3.125Z" fill="white"/>
</svg>
