<svg width="21" height="16" viewBox="0 0 21 16" fill="none" xmlns="http://www.w3.org/2000/svg">
<path d="M1.6 0C0.716 0 0 0.716 0 1.6V14.4C0 15.284 0.716 16 1.6 16H19.2C20.084 16 20.8 15.284 20.8 14.4V1.6C20.8 0.716 20.084 0 19.2 0H1.6ZM16.8 2.4C17.684 2.4 18.4 3.116 18.4 4C18.4 4.884 17.684 5.6 16.8 5.6C15.916 5.6 15.2 4.884 15.2 4C15.2 3.116 15.916 2.4 16.8 2.4ZM2.4 4L6.37812 7.97813L7.2 8.8L8.125 9.725C8.4626 10.0626 9.00771 10.0595 9.34531 9.72188C9.68371 9.38428 9.68371 8.83527 9.34531 8.49687L8.42344 7.57656L9.6 6.4L11.9781 8.77812L13.725 10.525C14.0626 10.8626 14.6077 10.8595 14.9453 10.5219C15.2837 10.1843 15.2837 9.63527 14.9453 9.29688L14.8234 9.17656L16 8L18.4 10.4V13.6H2.4V4Z" fill="white"/>
</svg>
