<svg width="16" height="16" viewBox="0 0 16 16" fill="none" xmlns="http://www.w3.org/2000/svg">
<path d="M4.79167 0C2.15266 0 0 2.15266 0 4.79167V11.0417C0 13.6803 2.15259 15.8333 4.79167 15.8333H11.0417C13.6804 15.8333 15.8333 13.6804 15.8333 11.0417V4.79167C15.8333 2.15259 13.6803 0 11.0417 0H4.79167ZM4.79167 1.25H11.0417C13.0047 1.25 14.5833 2.82825 14.5833 4.79167V11.0417C14.5833 13.0046 13.0046 14.5833 11.0417 14.5833H4.79167C2.82825 14.5833 1.25 13.0047 1.25 11.0417V4.79167C1.25 2.82817 2.82817 1.25 4.79167 1.25ZM12.0833 2.91667C11.6229 2.91667 11.25 3.28958 11.25 3.75C11.25 4.21042 11.6229 4.58333 12.0833 4.58333C12.5437 4.58333 12.9167 4.21042 12.9167 3.75C12.9167 3.28958 12.5437 2.91667 12.0833 2.91667ZM7.91667 3.75C5.62299 3.75 3.75 5.62299 3.75 7.91667C3.75 10.2103 5.62299 12.0833 7.91667 12.0833C10.2103 12.0833 12.0833 10.2103 12.0833 7.91667C12.0833 5.62299 10.2103 3.75 7.91667 3.75ZM7.91667 5C9.53466 5 10.8333 6.29868 10.8333 7.91667C10.8333 9.53466 9.53466 10.8333 7.91667 10.8333C6.29868 10.8333 5 9.53466 5 7.91667C5 6.29868 6.29868 5 7.91667 5Z" fill="white"/>
</svg>
