<svg width="20" height="20" viewBox="0 0 20 20" fill="none" xmlns="http://www.w3.org/2000/svg">
<path d="M6.87516 2.08337C4.23616 2.08337 2.0835 4.23604 2.0835 6.87504V13.125C2.0835 15.7637 4.23608 17.9167 6.87516 17.9167H13.1252C15.7639 17.9167 17.9168 15.7638 17.9168 13.125V6.87504C17.9168 4.23596 15.7638 2.08337 13.1252 2.08337H6.87516ZM6.87516 3.33337H13.1252C15.0882 3.33337 16.6668 4.91162 16.6668 6.87504V13.125C16.6668 15.088 15.0881 16.6667 13.1252 16.6667H6.87516C4.91174 16.6667 3.3335 15.0881 3.3335 13.125V6.87504C3.3335 4.91154 4.91167 3.33337 6.87516 3.33337ZM14.1668 5.00004C13.7064 5.00004 13.3335 5.37296 13.3335 5.83337C13.3335 6.29379 13.7064 6.66671 14.1668 6.66671C14.6272 6.66671 15.0002 6.29379 15.0002 5.83337C15.0002 5.37296 14.6272 5.00004 14.1668 5.00004ZM10.0002 5.83337C7.70649 5.83337 5.8335 7.70636 5.8335 10C5.8335 12.2937 7.70649 14.1667 10.0002 14.1667C12.2938 14.1667 14.1668 12.2937 14.1668 10C14.1668 7.70636 12.2938 5.83337 10.0002 5.83337ZM10.0002 7.08337C11.6182 7.08337 12.9168 8.38205 12.9168 10C12.9168 11.618 11.6182 12.9167 10.0002 12.9167C8.38217 12.9167 7.0835 11.618 7.0835 10C7.0835 8.38205 8.38217 7.08337 10.0002 7.08337Z" fill="white"/>
</svg>
