<svg width="14" height="15" viewBox="0 0 14 15" fill="none" xmlns="http://www.w3.org/2000/svg">
<path d="M13.322 4.20957C13.322 4.20957 11.8985 4.85275 11.734 6.16591C11.5696 7.47907 10.3405 8.79244 9.13623 9.17449C7.95406 9.54989 7.15138 10.6281 5.80263 9.96367C4.09971 9.12475 1.30874 7.76614 0.113281 8.08794C0.381555 7.77216 0.914624 7.28399 1.05762 6.89508C1.26965 6.30486 1.37821 5.9299 1.44553 5.47046C1.58467 4.52241 2.76843 2.65499 4.35987 1.69816C4.92308 1.36049 5.8033 0.283666 6.7659 0.495642C7.78961 0.721074 8.57329 0.0426653 9.3972 0.500394C10.2211 0.958124 11.2344 2.22737 11.6115 2.89712C12.1851 3.91573 13.322 4.20957 13.322 4.20957Z" fill="#95001A"/>
<path d="M11.5681 4.86475C11.5681 4.86475 11.0713 8.85225 8.33396 8.61278C5.59659 8.3733 6.50219 7.27324 1.39062 7.10109C1.39062 7.10109 2.75695 5.81944 5.48554 5.52808C8.21412 5.23672 11.5681 4.86475 11.5681 4.86475Z" fill="#780016"/>
<path d="M9.59958 1.67987C10.3907 2.59453 11.0237 4.25549 13.215 4.2199C13.215 4.2199 11.3024 4.7681 9.93476 3.75531C9.15823 3.17988 7.70177 2.91678 7.70177 2.91678L1.39034 7.10135L0 8.09635C1.23662 7.05289 2.35597 6.05403 3.0298 4.81291C3.69592 3.58637 4.52647 3.45602 5.73164 2.7113C6.73756 2.0897 6.87851 1.66577 7.04252 1.69601C8.90318 2.03907 9.01296 1.00161 9.59958 1.67987Z" fill="#69001F"/>
<path d="M12.6084 4.30214C11.9412 4.56949 11.7722 4.84498 11.4834 5.0926C10.5959 5.85305 9.99405 6.28677 9.30221 6.44542C8.024 6.73828 6.33919 6.49577 3.75298 6.6199C2.47048 6.68165 1.7234 6.95608 1.2168 7.23011C1.2168 7.23011 2.90583 5.30318 4.43509 4.50757C5.85201 3.77048 6.32532 3.03556 7.27527 2.79388C7.93967 2.62484 8.09418 2.73559 8.85436 2.60239C9.18812 2.5439 9.63667 3.04411 9.83905 3.20359C10.5107 3.73293 11.4714 4.29828 12.6084 4.30214Z" fill="#36000A"/>
<path d="M4.6161 8.98872C5.59523 9.83214 7.14593 10.6295 8.7929 9.90567C10.4399 9.18188 11.3656 8.02524 11.7354 6.73975C11.7569 7.22106 11.6979 8.21476 10.8449 9.23248C10.5597 9.57294 10.1391 10.0624 9.32567 10.4284C8.1643 10.951 7.0546 10.8374 6.80741 10.8074C6.48174 10.7675 6.1563 10.6884 5.17545 10.215C3.21611 9.26957 2.76824 8.74281 1.39184 8.36012C0.935839 8.2345 0.470348 8.14631 0 8.09642L0.584221 7.67835C0.584221 7.67835 3.63718 8.14509 4.6161 8.98872Z" fill="#69001F"/>
<path d="M13.2152 4.21924C13.2152 4.21924 11.9177 4.9664 10.7471 6.3383C10.7471 6.3383 11.4364 4.52711 12.3203 4.2917C12.3194 4.2917 13.0302 4.26469 13.2152 4.21924Z" fill="#810716"/>
<path d="M9.4221 0.141404C9.98941 0.440042 10.2843 0.55218 10.6731 1.11136C10.9581 1.52134 11.3356 2.3169 11.6486 2.83347C12.1914 3.72922 12.6251 3.79141 13.2085 4.21723C13.2085 4.21723 11.7537 4.09372 10.7421 2.07092C10.478 1.54295 9.98328 0.845456 9.30084 0.686624C8.98248 0.612529 8.62326 0.65566 8.22757 0.887918C7.45299 1.34256 7.04045 0.821547 6.48045 0.98464C5.90479 1.15229 5.85291 1.61424 4.91194 1.86508C1.84481 2.99322 2.53537 6.55623 0 8.09624C0 8.09645 0.770272 7.44124 1.12589 6.30263C1.70358 4.45297 2.2314 2.98844 3.81211 1.89805C4.44386 1.46227 4.93794 1.11378 6.05007 0.388403C6.45696 0.123013 7.30549 0.375736 7.84166 0.277697C9.00697 0.0646221 8.87011 -0.149169 9.4221 0.141404Z" fill="#B50018"/>
<path d="M8.20823 5.54786C8.20823 5.54786 4.86693 4.67253 2.18701 6.82632C2.18701 6.82632 7.16799 7.97823 6.31384 10.4097C4.57211 15.3682 8.96096 15.5388 12.6978 11.7134C14.1817 10.1942 14.2181 6.94995 11.766 4.73205C11.766 4.73205 9.77051 4.0902 8.20823 5.54786Z" fill="#F21B4E"/>
<path d="M13.591 8.6779C13.2208 9.42055 11.2241 12.251 9.06733 12.4574C6.34946 12.7173 8.27 9.04536 6.32802 8.09625C4.38605 7.14713 3.23926 7.00135 3.23926 7.00135C3.23926 7.00135 3.65925 6.32451 4.68791 5.67018C6.57007 5.31022 8.20783 5.54776 8.20783 5.54776C9.14687 4.67176 10.2153 4.51482 10.929 4.54612C11.1833 4.577 11.3921 4.65576 11.6614 4.70164C13.016 5.92646 13.6183 7.35681 13.591 8.6779Z" fill="#FE677E"/>
<path d="M13.4828 10.3224C13.4614 10.3794 13.4493 10.8981 12.7479 11.6645C8.12832 16.0851 4.61785 15.0524 6.18292 10.4551C7.01369 8.01576 2.0957 6.85623 2.0957 6.85623C4.59338 4.61624 8.20743 5.54766 8.20743 5.54766C8.2233 5.53286 8.23895 5.51871 8.25481 5.50478C8.25525 5.50796 8.25589 5.51111 8.25674 5.51421C8.40695 5.60039 8.55251 5.69443 8.69282 5.79593L8.64844 5.64178L8.26446 5.49685L8.2561 5.50435C8.26673 5.49372 8.63147 5.035 9.31655 4.73886C10.0133 4.43767 11.2223 4.33276 11.8164 4.76811C10.6986 4.37528 9.30353 4.96989 9.05171 6.07314L9.03756 6.06756C10.0667 6.9603 10.6938 8.24323 10.5368 9.43804C10.0469 8.14782 9.59477 7.25788 8.67867 6.19277C8.15876 6.02125 6.38616 5.48656 5.23894 5.73161C3.88205 6.02125 3.62563 7.04541 4.47142 7.61441C5.3172 8.18341 6.40438 8.37701 6.60849 9.32549C6.81259 10.274 6.23952 11.2818 6.16062 12.1844C6.071 13.2099 6.38938 14.0945 7.44076 14.114C9.18442 14.1457 12.119 12.4717 13.4828 10.3224Z" fill="#B6044A"/>
<path d="M8.69287 5.79621C8.55257 5.69471 8.40701 5.60067 8.25681 5.5145C8.25596 5.5114 8.25532 5.50825 8.25488 5.50506L8.26324 5.49756L8.64806 5.64227L8.69287 5.79621Z" fill="#D33886"/>
<path d="M12.2612 5.53416C12.3011 5.59226 12.7237 6.21635 12.514 6.34306C12.3262 6.4569 11.6086 6.18377 11.3831 5.71253C11.2309 5.39437 11.2948 4.96859 11.4862 4.90877C11.7188 4.83631 12.1101 5.31419 12.2612 5.53416Z" fill="#FFD6EE"/>
<path d="M8.72202 6.70607C9.4724 7.43008 9.77255 8.30159 9.66192 8.34683C9.63641 8.35733 9.45396 8.16802 9.08992 7.7894C8.57366 7.25234 8.43516 7.08769 8.30009 6.87094C8.27437 6.82935 7.94549 6.29636 8.05418 6.24105C8.14637 6.1941 8.51706 6.50818 8.72202 6.70607Z" fill="#FFD6EE"/>
<path d="M6.97625 13.0776C6.90572 13.148 7.28219 13.5292 7.84432 13.5946C8.10009 13.6242 8.40667 13.5901 8.42876 13.5315C8.43948 13.503 8.38588 13.4632 7.93265 13.3216C7.32207 13.1315 7.01742 13.0356 6.97625 13.0776Z" fill="#FFD6EE"/>
<path d="M6.78939 12.1494C6.76409 12.239 6.9562 12.3273 7.02931 12.2958C7.07412 12.2763 7.07841 12.2101 7.06447 12.1691C7.05101 12.135 7.0263 12.1066 6.99444 12.0884C6.96259 12.0703 6.92549 12.0636 6.8893 12.0694C6.84213 12.0793 6.79925 12.1145 6.78939 12.1494Z" fill="#FFD6EE"/>
<path d="M6.96586 6.12673C6.9427 6.30661 6.39921 6.50792 5.94684 6.50127C5.51269 6.49484 5.06032 6.29503 5.10513 6.11537C5.14801 5.946 5.62182 5.81909 5.95885 5.79851C6.44574 5.76785 6.98987 5.93872 6.96586 6.12673Z" fill="#FFD6EE"/>
<path d="M10.3321 1.23045C10.6139 1.92138 10.2362 1.16035 9.85232 0.81675C9.5058 0.506557 9.02394 0.488018 9.10964 0.389427C9.1247 0.358536 9.38914 0.357635 9.59346 0.431685C9.90311 0.54391 10.1921 0.887251 10.3321 1.23045Z" fill="#F79B7F"/>
<path d="M4.72946 3.26571C4.79828 3.3043 5.71085 2.71281 6.13642 2.40837C6.59088 2.13845 6.5982 1.92673 6.85145 1.81611C6.96599 1.76608 7.06136 1.72268 7.43311 1.73699C7.14513 1.64141 7.01891 1.62934 6.96244 1.39359C6.90395 1.14947 6.53345 0.405509 6.30855 0.43338C6.08365 0.461251 6.15682 1.23356 5.72532 1.96981C5.27661 2.73543 4.64735 3.21983 4.72946 3.26571Z" fill="#B50018"/>
<path d="M6.14647 1.80999C6.09127 2.06293 6.06442 2.1894 6.10181 2.19994C6.20344 2.2283 6.63554 1.91889 6.62124 1.61878C6.6122 1.43083 6.42902 1.26747 6.32564 1.29382C6.30306 1.29984 6.25262 1.32318 6.14647 1.80999Z" fill="#F79B7F"/>
<path d="M2.42615 4.05389C2.06374 5.36872 2.58531 4.25161 2.96021 3.63482C3.34025 3.00958 4.30619 2.22987 3.60712 2.51059C3.12831 2.70286 2.52417 3.69826 2.42615 4.05389Z" fill="#F79B7F"/>
<path d="M7.47852 1.72325C8.38757 1.8736 8.9513 1.43725 9.3705 1.54649C9.65187 1.61981 9.7848 2.03984 10.0835 2.29953C9.47995 1.684 9.52783 0.785297 9.16541 0.624358C8.72843 0.549385 9.37299 1.00774 8.80318 1.34639C8.53384 1.62422 7.8511 1.71524 7.47852 1.72325Z" fill="#B50018"/>
<path d="M8.6817 1.22375C8.51706 1.37147 8.10901 1.57037 8.12966 1.59636C8.18593 1.66679 8.9185 1.42422 9.05854 1.20907C9.24432 0.954932 9.10823 0.667498 9.01868 0.650487C8.81868 0.612499 8.99849 0.939385 8.6817 1.22375Z" fill="#F79B7F"/>
<path d="M6.25463 0.485937C6.21144 0.593689 6.69934 0.882529 7.05801 0.793009C7.19759 0.758188 7.39094 0.610216 7.38885 0.532503C7.38586 0.426693 6.92944 0.411942 6.71843 0.412821C6.57063 0.413436 6.28841 0.401947 6.25463 0.485937Z" fill="#F79B7F"/>
</svg>
