<svg width="16" height="15" viewBox="0 0 16 15" fill="none" xmlns="http://www.w3.org/2000/svg">
<path d="M9.20246 2.90773C9.20246 2.90773 8.21914 3.35201 8.10556 4.25906C7.99197 5.16611 7.14297 6.07331 6.31115 6.33721C5.49458 6.59652 4.94013 7.34126 4.00849 6.88233C2.83221 6.30285 0.904365 5.36441 0.0786133 5.58669C0.263921 5.36856 0.632135 5.03136 0.730908 4.76273C0.87737 4.35504 0.952354 4.09604 0.998855 3.77868C1.09497 3.12383 1.91264 1.83392 3.01191 1.17299C3.40095 0.939751 4.00895 0.195943 4.67386 0.342364C5.38098 0.498079 5.9223 0.0294737 6.49141 0.345647C7.06053 0.66182 7.76047 1.53855 8.02095 2.00117C8.4171 2.70477 9.20246 2.90773 9.20246 2.90773Z" fill="#95001A"/>
<path d="M7.99046 3.36023C7.99046 3.36023 7.64733 6.11457 5.75651 5.94915C3.86569 5.78374 4.49122 5.02388 0.960449 4.90497C0.960449 4.90497 1.90423 4.01968 3.78898 3.81842C5.67373 3.61717 7.99046 3.36023 7.99046 3.36023Z" fill="#780016"/>
<path d="M6.63084 1.16037C7.17727 1.79217 7.61451 2.93946 9.12815 2.91488C9.12815 2.91488 7.80703 3.29355 6.86236 2.59397C6.32598 2.19649 5.31994 2.01476 5.31994 2.01476L0.960366 4.90522L0 5.59251C0.854186 4.87175 1.62737 4.1818 2.09281 3.3245C2.55293 2.47727 3.12663 2.38724 3.95909 1.87283C4.65392 1.44346 4.75128 1.15063 4.86457 1.17152C6.14981 1.40849 6.22563 0.691869 6.63084 1.16037Z" fill="#69001F"/>
<path d="M8.70897 2.97179C8.24811 3.15646 8.13141 3.34676 7.93194 3.5178C7.31885 4.04308 6.90316 4.34266 6.42527 4.45225C5.54236 4.65454 4.37859 4.48703 2.59218 4.57277C1.70631 4.61542 1.19026 4.80499 0.840332 4.99426C0.840332 4.99426 2.00702 3.66325 3.06334 3.11369C4.04207 2.60456 4.36901 2.09691 5.02518 1.92997C5.48411 1.81321 5.59083 1.88971 6.11592 1.7977C6.34647 1.7573 6.6563 2.10282 6.79609 2.21298C7.26005 2.57861 7.92365 2.96913 8.70897 2.97179Z" fill="#36000A"/>
<path d="M3.18853 6.20873C3.86486 6.79132 4.936 7.34206 6.07363 6.84211C7.21126 6.34216 7.85072 5.54322 8.10617 4.65527C8.12098 4.98773 8.08026 5.67413 7.49101 6.37711C7.29404 6.61228 7.00349 6.95037 6.44164 7.20316C5.63943 7.5642 4.87291 7.48571 4.70217 7.46498C4.47722 7.43743 4.25242 7.38279 3.5749 7.05581C2.2215 6.40273 1.91214 6.03888 0.961403 5.77454C0.646424 5.68777 0.324889 5.62685 0 5.59238L0.403546 5.30361C0.403546 5.30361 2.51235 5.626 3.18853 6.20873Z" fill="#69001F"/>
<path d="M9.12817 2.91467C9.12817 2.91467 8.23192 3.43077 7.42334 4.3784C7.42334 4.3784 7.89945 3.12733 8.51004 2.96473C8.50944 2.96473 9.00037 2.94607 9.12817 2.91467Z" fill="#810716"/>
<path d="M6.50825 0.097674C6.90011 0.303955 7.10379 0.381414 7.37235 0.767666C7.56926 1.05086 7.82997 1.60038 8.0462 1.9572C8.42114 2.57593 8.72069 2.61889 9.1237 2.91302C9.1237 2.91302 8.11876 2.82771 7.42 1.43048C7.23761 1.06578 6.89588 0.583993 6.42449 0.474281C6.20458 0.4231 5.95646 0.452893 5.68313 0.613323C5.1481 0.927363 4.86314 0.567478 4.47632 0.680133C4.07869 0.795938 4.04285 1.11502 3.39289 1.28829C1.27429 2.06755 1.75129 4.52867 0 5.59242C0 5.59257 0.53206 5.13998 0.7777 4.35349C1.17674 3.07586 1.54133 2.06425 2.63319 1.31107C3.06956 1.01005 3.41084 0.769334 4.17904 0.268286C4.4601 0.08497 5.04621 0.259537 5.41657 0.191817C6.2215 0.0446372 6.12696 -0.103037 6.50825 0.097674Z" fill="#B50018"/>
<path d="M5.66936 3.83212C5.66936 3.83212 3.36139 3.22749 1.51025 4.71521C1.51025 4.71521 4.95083 5.51087 4.36083 7.19037C3.15774 10.6154 6.18931 10.7333 8.77054 8.09091C9.79547 7.04154 9.82061 4.8006 8.1269 3.26861C8.1269 3.26861 6.7485 2.82525 5.66936 3.83212Z" fill="#F21B4E"/>
<path d="M9.38772 5.9942C9.13196 6.50719 7.75279 8.46227 6.263 8.60488C4.38566 8.78437 5.71225 6.24803 4.37085 5.59243C3.02944 4.93684 2.2373 4.83614 2.2373 4.83614C2.2373 4.83614 2.52741 4.36862 3.23795 3.91665C4.53804 3.668 5.66931 3.83209 5.66931 3.83209C6.31794 3.22699 7.05595 3.11859 7.54895 3.14021C7.72458 3.16154 7.86884 3.21594 8.05485 3.24763C8.99048 4.09367 9.40652 5.08167 9.38772 5.9942Z" fill="#FE677E"/>
<path d="M9.3133 7.13014C9.29849 7.16954 9.2902 7.52777 8.80565 8.05719C5.61474 11.1107 3.18991 10.3973 4.27097 7.22181C4.84482 5.53684 1.44775 4.7359 1.44775 4.7359C3.17301 3.18865 5.66939 3.83201 5.66939 3.83201C5.68034 3.8218 5.69115 3.81202 5.70211 3.8024C5.70242 3.8046 5.70286 3.80677 5.70345 3.80891C5.8072 3.86844 5.90775 3.93339 6.00466 4.0035L5.97401 3.89703L5.70878 3.79692L5.703 3.8021C5.71034 3.79476 5.96228 3.4779 6.4355 3.27335C6.91681 3.0653 7.75186 2.99284 8.16228 3.29355C7.39014 3.0222 6.4265 3.43292 6.25257 4.19498L6.24279 4.19113C6.95363 4.80778 7.38679 5.69396 7.27839 6.51927C6.94 5.62806 6.62768 5.01333 5.99489 4.27762C5.63577 4.15915 4.41136 3.78981 3.61892 3.95908C2.68166 4.15915 2.50454 4.86658 3.08876 5.25961C3.67298 5.65264 4.42394 5.78637 4.56493 6.44152C4.70591 7.09667 4.31006 7.79285 4.25557 8.41631C4.19366 9.12463 4.41358 9.73565 5.13981 9.74913C6.34423 9.77104 8.3713 8.61475 9.3133 7.13014Z" fill="#B6044A"/>
<path d="M6.00468 4.00365C5.90777 3.93354 5.80723 3.86859 5.70348 3.80906C5.7029 3.80692 5.70245 3.80475 5.70215 3.80255L5.70792 3.79736L5.97373 3.89732L6.00468 4.00365Z" fill="#D33886"/>
<path d="M8.46932 3.82284C8.49687 3.86297 8.78875 4.29406 8.64392 4.38158C8.51419 4.46022 8.01854 4.27155 7.86275 3.94605C7.75761 3.72628 7.80174 3.43217 7.93398 3.39086C8.09466 3.3408 8.36492 3.6709 8.46932 3.82284Z" fill="#FFD6EE"/>
<path d="M6.02481 4.63209C6.54313 5.13219 6.75046 5.73418 6.67404 5.76543C6.65642 5.77268 6.53039 5.64192 6.27893 5.38039C5.92233 5.00942 5.82666 4.89569 5.73337 4.74597C5.7156 4.71724 5.48842 4.34908 5.56351 4.31088C5.62719 4.27845 5.88323 4.4954 6.02481 4.63209Z" fill="#FFD6EE"/>
<path d="M4.81885 9.03299C4.77012 9.08157 5.03017 9.3449 5.41846 9.39007C5.59513 9.41051 5.8069 9.38696 5.82215 9.34653C5.82956 9.32683 5.79253 9.29928 5.47947 9.20153C5.05771 9.07017 4.84728 9.00396 4.81885 9.03299Z" fill="#FFD6EE"/>
<path d="M4.69005 8.39235C4.67258 8.45424 4.80527 8.51525 4.85577 8.49349C4.88673 8.48001 4.88969 8.43425 4.88006 8.40597C4.87076 8.38242 4.8537 8.36276 4.83169 8.35023C4.80969 8.33771 4.78406 8.33308 4.75907 8.33711C4.72648 8.34392 4.69686 8.36821 4.69005 8.39235Z" fill="#FFD6EE"/>
<path d="M4.81182 4.23237C4.79583 4.35662 4.42042 4.49567 4.10795 4.49108C3.80806 4.48664 3.49559 4.34862 3.52654 4.22452C3.55616 4.10753 3.88344 4.01987 4.11624 4.00565C4.45255 3.98447 4.82841 4.1025 4.81182 4.23237Z" fill="#FFD6EE"/>
<path d="M7.13696 0.849974C7.33166 1.32723 7.07071 0.801558 6.80557 0.564217C6.56622 0.349953 6.23337 0.337147 6.29257 0.269046C6.30298 0.247708 6.48564 0.247086 6.62677 0.298236C6.84066 0.375754 7.04026 0.612915 7.13696 0.849974Z" fill="#F79B7F"/>
<path d="M3.26724 2.25565C3.31478 2.2823 3.94513 1.87373 4.23909 1.66344C4.55301 1.477 4.55806 1.33075 4.73299 1.25435C4.81211 1.21979 4.87799 1.18981 5.13477 1.19969C4.93585 1.13367 4.84866 1.12533 4.80966 0.962492C4.76926 0.793864 4.51334 0.279981 4.35799 0.299233C4.20264 0.318484 4.25318 0.851949 3.95512 1.36051C3.64518 1.88936 3.21052 2.22395 3.26724 2.25565Z" fill="#B50018"/>
<path d="M4.24595 1.2502C4.20782 1.42492 4.18927 1.51228 4.2151 1.51956C4.2853 1.53914 4.58377 1.32543 4.57389 1.11812C4.56765 0.988298 4.44112 0.87546 4.36971 0.893659C4.35411 0.897819 4.31927 0.913939 4.24595 1.2502Z" fill="#F79B7F"/>
<path d="M1.67588 2.80009C1.42555 3.70829 1.78582 2.93666 2.04478 2.51062C2.30729 2.07874 2.9745 1.54016 2.49163 1.73407C2.16089 1.86688 1.74359 2.55444 1.67588 2.80009Z" fill="#F79B7F"/>
<path d="M5.16553 1.19058C5.79345 1.29443 6.18284 0.993033 6.4724 1.06849C6.66676 1.11913 6.75858 1.40926 6.96491 1.58864C6.548 1.16347 6.58108 0.542698 6.33074 0.431531C6.0289 0.379744 6.47412 0.696347 6.08053 0.93027C5.89449 1.12218 5.42289 1.18505 5.16553 1.19058Z" fill="#B50018"/>
<path d="M5.99658 0.845208C5.88286 0.947248 5.60101 1.08464 5.61527 1.10259C5.65413 1.15124 6.16015 0.983681 6.25688 0.835069C6.38521 0.659527 6.2912 0.460984 6.22935 0.449234C6.0912 0.422994 6.2154 0.648788 5.99658 0.845208Z" fill="#F79B7F"/>
<path d="M4.32021 0.335937C4.29038 0.410366 4.62739 0.60988 4.87514 0.548045C4.97155 0.523992 5.10511 0.421781 5.10366 0.368102C5.1016 0.295015 4.78633 0.284825 4.64057 0.285432C4.53848 0.285858 4.34354 0.277922 4.32021 0.335937Z" fill="#F79B7F"/>
<path d="M1.43311 14.0161V8.70947L2.69498 8.28134L3.98826 9.42623L4.29066 9.69383L4.29851 9.70079L4.60135 9.96883V7.63448L6.24249 7.07751V12.3843L5.2993 12.7044L4.0124 11.3815L3.39856 10.7507V13.3493L1.43311 14.0161Z" fill="#610300"/>
<path d="M6.56299 12.2569V6.96894L7.45805 6.6652L8.15378 6.42915L8.16014 6.42693L9.08882 6.11194L9.7847 5.87573V7.45956L9.08882 7.69562L8.16014 8.01075L8.15378 8.01297V8.39268L8.16014 8.39046L9.08882 8.07547V9.65915L8.16014 9.97428L8.15378 9.97636V11.7358L6.56299 12.2569Z" fill="#610300"/>
<path d="M13.2934 9.98607L11.6963 10.5307V6.81101L10.0991 7.35287V5.76905L11.6963 5.22718L13.2933 4.68532H13.2934L14.8904 4.14331V5.72714L13.2934 6.269H13.2933V9.96741L13.2934 9.96726V9.98607Z" fill="#610300"/>
<path d="M1.44092 14.013V8.7262L1.87038 9.10975V14.3965L1.44092 14.013Z" fill="white"/>
<path d="M1.44791 8.74262L1.86258 9.11285V14.3797L1.44791 14.0095V8.74262ZM1.43311 8.70959V14.0163L1.87738 14.413V9.10633L1.43311 8.70959Z" fill="#231F20"/>
<path d="M1.44775 8.71235L2.6935 8.28955L3.12503 8.67503L1.87929 9.09783L1.44775 8.71235Z" fill="white"/>
<path d="M2.69158 8.29825L3.11112 8.67233L1.88197 9.08965L1.46317 8.71557L2.69232 8.29825H2.69158ZM2.69573 8.28137L1.43311 8.71024L1.87738 9.10698L3.13926 8.67885L2.69499 8.28196L2.69573 8.28137Z" fill="#231F20"/>
<path d="M4.60889 9.96551V7.651L5.03835 8.03456V10.3491L4.60889 9.96551Z" fill="white"/>
<path d="M4.61637 7.66733L5.03102 8.03755V10.3322L4.61637 9.96199V7.66733ZM4.60156 7.63416V9.96865L5.04583 10.3654V8.03104L4.60156 7.63416Z" fill="#231F20"/>
<path d="M5.30441 12.6989L3.8457 11.1994L3.84896 11.1642L5.59126 12.9551L5.30441 12.6989Z" fill="white"/>
<path d="M3.85482 11.1808L5.43939 12.8089L5.31025 12.6935L3.85378 11.1966L3.85526 11.1808H3.85482ZM3.84341 11.1475L3.83838 11.2021L5.29988 12.7043L5.74415 13.101L3.84297 11.1475H3.84341Z" fill="#231F20"/>
<path d="M6.57031 12.2536V6.9856L6.99977 7.36915V12.6372L6.57031 12.2536Z" fill="white"/>
<path d="M6.5778 7.00202L6.99245 7.37224V12.6204L6.5778 12.2502V7.00202ZM6.56299 6.96899V12.2568L7.00726 12.6537V7.36573L6.56299 6.96899Z" fill="#231F20"/>
<path d="M8.16846 8.39546L9.08736 8.08386L9.51889 8.46921L8.59999 8.78095L8.16846 8.39546Z" fill="white"/>
<path d="M9.08534 8.09229L9.50429 8.46633L8.60094 8.77256L8.18258 8.39925L9.08593 8.09303L9.08534 8.09229ZM9.08934 8.07629L8.1543 8.39333L8.59857 8.79018L9.53361 8.473L9.08934 8.07629Z" fill="#231F20"/>
<path d="M12.1326 10.9181C12.083 10.8956 11.8487 10.6724 11.7031 10.5276V6.82739L12.1326 7.21094V10.9181Z" fill="white"/>
<path d="M11.7106 6.84411L12.1253 7.21434V10.9055C12.066 10.8674 11.8775 10.6906 11.7106 10.5246V6.84411ZM11.6958 6.81094V10.5305C11.6958 10.5305 12.0942 10.9274 12.1392 10.9274H12.1401V7.20767L11.6958 6.81079V6.81094Z" fill="#231F20"/>
<path d="M10.1064 7.34976V5.78577L10.5359 6.16932V7.73332L10.1064 7.34976Z" fill="white"/>
<path d="M10.1134 5.80219L10.5281 6.17242V7.7167L10.1134 7.34648V5.80219ZM10.0986 5.76917V7.35373L10.5429 7.75047V6.1659L10.0986 5.76917Z" fill="#231F20"/>
<path d="M10.1133 5.772L14.8885 4.15173L15.3202 4.53707L10.5448 6.15748L10.1133 5.772Z" fill="white"/>
<path d="M14.8865 4.16004L15.3055 4.53398L10.5463 6.14817L10.1275 5.77498L14.8865 4.16079V4.16004ZM14.8899 4.14405L10.0986 5.76906L10.5429 6.1658L15.3342 4.54005L14.8899 4.14331V4.14405Z" fill="#231F20"/>
<path d="M4.61572 7.63755L6.24072 7.08606L6.6724 7.47139L5.04726 8.02288L4.61572 7.63755Z" fill="white"/>
<path d="M6.23929 7.09418L6.65824 7.46825L5.04924 8.01397L4.63044 7.63989L6.23929 7.09388V7.09418ZM6.2427 7.07715L4.60156 7.63397L5.04583 8.03085L6.68697 7.47388L6.2427 7.07715Z" fill="#231F20"/>
<path d="M6.57764 6.972L9.78321 5.88428L10.2149 6.26961L7.00917 7.35733L6.57764 6.972Z" fill="white"/>
<path d="M9.78131 5.89247L10.2003 6.26669L7.01067 7.34879L6.59127 6.97471L9.78072 5.89247H9.78131ZM9.78413 5.87573L6.56299 6.96894L7.00726 7.36567L10.229 6.27247L9.78472 5.87573H9.78413Z" fill="#231F20"/>
<path d="M1.87744 14.4128V9.10608L3.13932 8.67795L4.43259 9.82284L4.73499 10.0904L4.74284 10.0974L5.04569 10.3654V8.03109L6.68683 7.47412V12.781L5.74364 13.101L4.45673 11.7782L3.8429 11.1474V13.7459L1.87744 14.4128Z" fill="#050505"/>
<path d="M7.00732 12.6536V7.36554L7.90238 7.06196L8.59811 6.82575L8.60448 6.82353L9.53315 6.50854L10.229 6.27234V7.85616L9.53315 8.09222L8.60448 8.40751L8.59811 8.40958V8.78928L8.60448 8.78721L9.53315 8.47207V10.0558L8.60448 10.3709L8.59811 10.373V12.1324L7.00732 12.6536Z" fill="#050505"/>
<path d="M13.7373 10.3829L12.1401 10.9276V7.20787L10.543 7.74974V6.1659L12.1401 5.62419L13.7371 5.08217H13.7373L15.3343 4.54016V6.12399L13.7373 6.66586H13.7371V10.3643L13.7373 10.3641V10.3829Z" fill="#050505"/>
</svg>
