<svg width="4" height="15" viewBox="0 0 4 15" fill="none" xmlns="http://www.w3.org/2000/svg">
<path d="M1.66667 11.6667C1.22464 11.6667 0.800716 11.8423 0.488156 12.1548C0.175595 12.4674 0 12.8913 0 13.3333C0 13.7754 0.175595 14.1993 0.488156 14.5118C0.800716 14.8244 1.22464 15 1.66667 15C2.10869 15 2.53262 14.8244 2.84518 14.5118C3.15774 14.1993 3.33333 13.7754 3.33333 13.3333C3.33333 12.8913 3.15774 12.4674 2.84518 12.1548C2.53262 11.8423 2.10869 11.6667 1.66667 11.6667ZM1.66667 5.83333C1.22464 5.83333 0.800716 6.00893 0.488156 6.32149C0.175595 6.63405 0 7.05797 0 7.5C0 7.94203 0.175595 8.36595 0.488156 8.67851C0.800716 8.99107 1.22464 9.16667 1.66667 9.16667C2.10869 9.16667 2.53262 8.99107 2.84518 8.67851C3.15774 8.36595 3.33333 7.94203 3.33333 7.5C3.33333 7.05797 3.15774 6.63405 2.84518 6.32149C2.53262 6.00893 2.10869 5.83333 1.66667 5.83333ZM1.66667 0C1.22464 0 0.800716 0.175595 0.488156 0.488155C0.175595 0.800716 0 1.22464 0 1.66667C0 2.10869 0.175595 2.53262 0.488156 2.84518C0.800716 3.15774 1.22464 3.33333 1.66667 3.33333C2.10869 3.33333 2.53262 3.15774 2.84518 2.84518C3.15774 2.53262 3.33333 2.10869 3.33333 1.66667C3.33333 1.22464 3.15774 0.800716 2.84518 0.488155C2.53262 0.175595 2.10869 0 1.66667 0Z" fill="white"/>
</svg>
