<svg width="20" height="20" viewBox="0 0 20 20" fill="none" xmlns="http://www.w3.org/2000/svg">
<path fill-rule="evenodd" clip-rule="evenodd" d="M9.97403 8.45888e-06C7.99705 0.00514389 6.06596 0.596159 4.42475 1.69838C2.78354 2.8006 1.50586 4.36455 0.753156 6.19264C0.00045284 8.02072 -0.193499 10.0309 0.195808 11.9692C0.585115 13.9074 1.54021 15.6868 2.94041 17.0825C4.34062 18.4782 6.12309 19.4275 8.06261 19.8105C10.0021 20.1935 12.0117 19.9931 13.8373 19.2344C15.6629 18.4758 17.2227 17.1931 18.3196 15.5483C19.4165 13.9035 20.0013 11.9705 20 9.99351C19.9948 7.33903 18.9358 4.79522 17.0558 2.92126C15.1757 1.0473 12.6285 -0.00343948 9.97403 8.45888e-06ZM9.97403 18.9546C8.20367 18.9503 6.47429 18.4214 5.00431 17.4349C3.53433 16.4483 2.38969 15.0482 1.71497 13.4115C1.04025 11.7747 0.865707 9.97472 1.21339 8.23884C1.56108 6.50295 2.4154 4.90904 3.66844 3.65841C4.92148 2.40778 6.51704 1.55654 8.2536 1.21221C9.99015 0.867876 11.7898 1.04589 13.4252 1.72377C15.0607 2.40165 16.4585 3.54899 17.4423 5.02087C18.426 6.49275 18.9515 8.22315 18.9524 9.99351C18.9489 12.3717 18.0012 14.6511 16.3176 16.3307C14.6339 18.0103 12.3522 18.9525 9.97403 18.9502V18.9546Z" fill="white"/>
<path d="M14.1319 9.34858V8.53256C14.1315 8.04811 14.034 7.56867 13.8451 7.12255C13.6562 6.67643 13.3799 6.27268 13.0324 5.93516C12.3299 5.2407 11.3816 4.85175 10.3938 4.85291H9.72285C8.73581 4.85232 7.78841 5.24123 7.08648 5.93516C6.73887 6.27249 6.46259 6.67625 6.27407 7.12244C6.08555 7.56864 5.98864 8.04817 5.98908 8.53256V9.34858L5.52588 10.1841V11.3875C5.5267 11.9256 5.63513 12.458 5.84478 12.9535C6.05443 13.449 6.36107 13.8976 6.74666 14.2728C7.53194 15.0429 8.58837 15.4735 9.68822 15.472H10.435C11.532 15.4722 12.5852 15.0416 13.3679 14.2728C13.7541 13.898 14.0614 13.4495 14.2714 12.954C14.4815 12.4584 14.5901 11.9258 14.5908 11.3875V10.1841L14.1319 9.34858ZM10.4956 13.0412V14.0044C10.4961 14.0751 10.4787 14.1447 10.445 14.2067C10.4113 14.2688 10.3624 14.3213 10.3029 14.3594H10.1211C10.0996 14.3627 10.0777 14.3627 10.0562 14.3594H10.0129C9.9949 14.3613 9.97677 14.3613 9.95878 14.3594H9.87653C9.81587 14.3205 9.76589 14.267 9.73111 14.2039C9.69634 14.1408 9.67788 14.07 9.67739 13.9979V13.0412C9.42652 12.9438 9.21787 12.7613 9.08796 12.5256C8.95804 12.2899 8.91513 12.016 8.96672 11.7519C9.0183 11.4878 9.16111 11.2502 9.37017 11.0807C9.57922 10.9112 9.8412 10.8206 10.1103 10.8248H10.1341C10.4032 10.8206 10.6652 10.9112 10.8742 11.0807C11.0833 11.2502 11.2261 11.4878 11.2777 11.7519C11.3293 12.016 11.2864 12.2899 11.1564 12.5256C11.0265 12.7613 10.8179 12.9438 10.567 13.0412H10.4956ZM12.4631 9.37455H7.65575V8.53256C7.65628 8.26488 7.71037 8.00002 7.81482 7.75356C7.91928 7.5071 8.07199 7.28403 8.26397 7.0975C8.65213 6.71248 9.17613 6.49557 9.72285 6.4936H10.3938C10.9406 6.49534 11.4647 6.71228 11.8527 7.0975C12.0443 7.28433 12.1968 7.50745 12.3012 7.75384C12.4056 8.00023 12.4599 8.26496 12.4609 8.53256L12.4631 9.37455Z" fill="white"/>
</svg>
