<svg width="15" height="15" viewBox="0 0 15 15" fill="none" xmlns="http://www.w3.org/2000/svg">
<path d="M6.04167 0C2.71235 0 0 2.71235 0 6.04167C0 9.37098 2.71235 12.0833 6.04167 12.0833C7.48182 12.0833 8.80571 11.5746 9.84538 10.7292L13.9331 14.8169C13.9907 14.8769 14.0597 14.9248 14.136 14.9578C14.2123 14.9907 14.2945 15.0082 14.3776 15.009C14.4608 15.0099 14.5433 14.9941 14.6202 14.9627C14.6972 14.9312 14.7672 14.8848 14.826 14.826C14.8848 14.7672 14.9312 14.6972 14.9627 14.6202C14.9941 14.5433 15.0099 14.4608 15.009 14.3776C15.0082 14.2945 14.9907 14.2123 14.9578 14.136C14.9248 14.0597 14.8769 13.9907 14.8169 13.9331L10.7292 9.84538C11.5746 8.80571 12.0833 7.48182 12.0833 6.04167C12.0833 2.71235 9.37099 0 6.04167 0ZM6.04167 1.25C8.69544 1.25 10.8333 3.3879 10.8333 6.04167C10.8333 7.33442 10.3234 8.50238 9.49626 9.36279C9.44527 9.40027 9.40027 9.44527 9.36279 9.49626C8.50238 10.3234 7.33442 10.8333 6.04167 10.8333C3.3879 10.8333 1.25 8.69543 1.25 6.04167C1.25 3.3879 3.3879 1.25 6.04167 1.25Z" fill="white"/>
</svg>
