<svg width="16" height="16" viewBox="0 0 16 16" fill="none" xmlns="http://www.w3.org/2000/svg">
<path d="M12.9167 0C11.3132 0 10 1.31324 10 2.91667C10 3.16074 10.0827 3.37894 10.14 3.60596L5.14404 6.10514C4.60797 5.44747 3.82563 5 2.91667 5C1.31324 5 0 6.31324 0 7.91667C0 9.52009 1.31324 10.8333 2.91667 10.8333C3.82563 10.8333 4.60797 10.3859 5.14404 9.72819L10.14 12.2274C10.0827 12.4544 10 12.6726 10 12.9167C10 14.5201 11.3132 15.8333 12.9167 15.8333C14.5201 15.8333 15.8333 14.5201 15.8333 12.9167C15.8333 11.3132 14.5201 10 12.9167 10C12.0077 10 11.2254 10.4475 10.6893 11.1051L5.69336 8.60596C5.75061 8.37894 5.83333 8.16074 5.83333 7.91667C5.83333 7.6726 5.75061 7.45439 5.69336 7.22738L10.6893 4.72819C11.2254 5.38586 12.0077 5.83333 12.9167 5.83333C14.5201 5.83333 15.8333 4.52009 15.8333 2.91667C15.8333 1.31324 14.5201 0 12.9167 0ZM12.9167 1.25C13.8445 1.25 14.5833 1.98879 14.5833 2.91667C14.5833 3.84454 13.8445 4.58333 12.9167 4.58333C11.9888 4.58333 11.25 3.84454 11.25 2.91667C11.25 1.98879 11.9888 1.25 12.9167 1.25ZM2.91667 6.25C3.84455 6.25 4.58333 6.98879 4.58333 7.91667C4.58333 8.84454 3.84455 9.58333 2.91667 9.58333C1.98879 9.58333 1.25 8.84454 1.25 7.91667C1.25 6.98879 1.98879 6.25 2.91667 6.25ZM12.9167 11.25C13.8445 11.25 14.5833 11.9888 14.5833 12.9167C14.5833 13.8445 13.8445 14.5833 12.9167 14.5833C11.9888 14.5833 11.25 13.8445 11.25 12.9167C11.25 11.9888 11.9888 11.25 12.9167 11.25Z" fill="white"/>
</svg>
