<svg width="24" height="24" viewBox="0 0 24 24" fill="none" xmlns="http://www.w3.org/2000/svg">
<path d="M12.0004 2.40039C6.70802 2.40039 2.40039 6.70802 2.40039 12.0004C2.40039 17.2928 6.70802 21.6004 12.0004 21.6004C17.2928 21.6004 21.6004 17.2928 21.6004 12.0004C21.6003 11.7882 21.516 11.5848 21.366 11.4348L21.2473 11.3176C21.2295 11.2979 21.2107 11.2791 21.191 11.2613L12.7957 2.86445C12.7468 2.7974 12.6878 2.73836 12.6207 2.68945L12.566 2.63477C12.416 2.48474 12.2125 2.40043 12.0004 2.40039ZM11.2363 4.09727C11.216 4.32939 11.2004 4.56354 11.2004 4.80039C11.2004 5.08682 11.2162 5.37006 11.2457 5.64883C8.06749 6.02285 5.60039 8.72173 5.60039 12.0004C5.60039 15.5348 8.46599 18.4004 12.0004 18.4004C15.279 18.4004 17.9779 15.9333 18.352 12.7551C18.6307 12.7846 18.914 12.8004 19.2004 12.8004C19.4372 12.8004 19.6714 12.7848 19.9035 12.7645C19.515 16.8237 16.1636 20.0004 12.0004 20.0004C7.57276 20.0004 4.00039 16.428 4.00039 12.0004C4.00039 7.83719 7.1771 4.48573 11.2363 4.09727ZM12.8176 5.14883L18.852 11.1832C15.5876 11.0085 12.9923 8.4132 12.8176 5.14883Z" fill="white"/>
</svg>
