<svg width="20" height="20" viewBox="0 0 20 20" fill="none" xmlns="http://www.w3.org/2000/svg">
<path d="M9.6 0C4.30763 0 0 4.30763 0 9.6C0 14.8924 4.30763 19.2 9.6 19.2C14.8924 19.2 19.2 14.8924 19.2 9.6C19.2 9.38784 19.1157 9.18438 18.9656 9.03437L18.8469 8.91719C18.8291 8.89752 18.8103 8.87874 18.7906 8.86094L10.3953 0.464062C10.3464 0.397006 10.2874 0.337966 10.2203 0.289062L10.1656 0.234375C10.0156 0.084346 9.81216 4.09e-05 9.6 0ZM8.83594 1.69687C8.81557 1.929 8.8 2.16315 8.8 2.4C8.8 2.68643 8.81576 2.96967 8.84531 3.24844C5.6671 3.62246 3.2 6.32134 3.2 9.6C3.2 13.1344 6.0656 16 9.6 16C12.8787 16 15.5775 13.5329 15.9516 10.3547C16.2303 10.3842 16.5136 10.4 16.8 10.4C17.0369 10.4 17.271 10.3844 17.5031 10.3641C17.1147 14.4233 13.7632 17.6 9.6 17.6C5.17237 17.6 1.6 14.0276 1.6 9.6C1.6 5.4368 4.7767 2.08534 8.83594 1.69687ZM10.4172 2.74844L16.4516 8.78281C13.1872 8.60811 10.5919 6.01281 10.4172 2.74844Z" fill="white"/>
</svg>
