<svg width="14" height="16" viewBox="0 0 14 16" fill="none" xmlns="http://www.w3.org/2000/svg">
<path d="M5.8125 5.62545e-05C5.73796 -0.000997897 5.66396 0.0127727 5.59479 0.040568C5.52562 0.0683632 5.46266 0.109629 5.40958 0.161966C5.3565 0.214304 5.31435 0.27667 5.28557 0.345439C5.2568 0.414209 5.24199 0.488011 5.24199 0.562556C5.24199 0.637102 5.2568 0.710904 5.28557 0.779673C5.31435 0.848443 5.3565 0.910809 5.40958 0.963146C5.46266 1.01548 5.52562 1.05675 5.59479 1.08454C5.66396 1.11234 5.73796 1.12611 5.8125 1.12506H6.1875V1.90362C2.72887 2.19108 0 5.09361 0 8.62506C0 12.3463 3.02874 15.3751 6.75 15.3751C10.4713 15.3751 13.5 12.3463 13.5 8.62506C13.5 6.96651 12.8961 5.44812 11.8997 4.27154L12.5837 3.58673C12.6649 3.50769 12.7203 3.406 12.7427 3.29496C12.7651 3.18392 12.7534 3.06871 12.7093 2.96439C12.6651 2.86008 12.5905 2.77153 12.4952 2.71033C12.3999 2.64913 12.2883 2.61813 12.175 2.62139C12.029 2.62565 11.8903 2.68659 11.7883 2.79132L11.1035 3.4754C10.0616 2.593 8.75094 2.02317 7.3125 1.90362V1.12506H7.6875C7.76204 1.12611 7.83604 1.11234 7.90521 1.08454C7.97438 1.05675 8.03734 1.01548 8.09042 0.963146C8.1435 0.910809 8.18565 0.848443 8.21443 0.779673C8.2432 0.710904 8.25801 0.637102 8.25801 0.562556C8.25801 0.488011 8.2432 0.414209 8.21443 0.345439C8.18565 0.27667 8.1435 0.214304 8.09042 0.161966C8.03734 0.109629 7.97438 0.0683632 7.90521 0.040568C7.83604 0.0127727 7.76204 -0.000997897 7.6875 5.62545e-05H5.8125ZM6.68335 3.00372C6.72859 3.00924 6.77434 3.00924 6.81958 3.00372C8.33253 3.02214 9.69864 3.63199 10.6978 4.61578C10.716 4.637 10.7359 4.65683 10.7571 4.6751C11.7574 5.68987 12.375 7.08302 12.375 8.62506C12.375 11.7383 9.86327 14.2501 6.75 14.2501C3.63673 14.2501 1.125 11.7383 1.125 8.62506C1.125 5.5343 3.60132 3.03967 6.68335 3.00372ZM9.17651 5.61993C9.03043 5.62419 8.89174 5.68513 8.78979 5.78985L7.04004 7.53961C6.94549 7.51385 6.84799 7.50055 6.75 7.50006C6.45163 7.50006 6.16548 7.61858 5.9545 7.82956C5.74353 8.04054 5.625 8.32669 5.625 8.62506C5.625 8.92342 5.74353 9.20957 5.9545 9.42055C6.16548 9.63153 6.45163 9.75006 6.75 9.75006C6.92248 9.74996 7.09262 9.71022 7.24729 9.63389C7.40195 9.55756 7.537 9.44668 7.64198 9.30984C7.74697 9.173 7.81909 9.01385 7.85276 8.84469C7.88643 8.67553 7.88076 8.5009 7.83618 8.33428L9.58521 6.58526C9.66636 6.50623 9.72176 6.40454 9.74416 6.2935C9.76656 6.18246 9.75491 6.06724 9.71075 5.96293C9.66659 5.85862 9.59196 5.77006 9.49664 5.70887C9.40132 5.64767 9.28974 5.61667 9.17651 5.61993Z" fill="#231F20"/>
</svg>
