<svg width="20" height="20" viewBox="0 0 20 20" fill="none" xmlns="http://www.w3.org/2000/svg">
<path d="M6.4585 2.49993C6.41174 2.49932 6.36506 2.50396 6.31934 2.51377C5.82385 2.5515 5.38251 2.78189 5.06771 3.13388C5.03195 3.16435 4.99973 3.19874 4.97168 3.23642L2.4611 6.53802C2.46028 6.53937 2.45947 6.54073 2.45866 6.54209C2.21559 6.86638 2.0835 7.26088 2.0835 7.66676V15.2083C2.0835 16.2364 2.93037 17.0833 3.9585 17.0833H6.25016V18.5416C6.25018 18.7073 6.31603 18.8663 6.43324 18.9835C6.55045 19.1007 6.70941 19.1666 6.87516 19.1666H7.78011C8.16682 19.1666 8.53788 19.0127 8.8112 18.7393L10.4673 17.0833H12.5726C13.1007 17.0833 13.6042 16.8597 13.9593 16.4697L17.1047 13.0102H17.1038C17.6268 12.4352 17.9168 11.6854 17.9168 10.9081V4.37493C17.9168 3.34681 17.07 2.49993 16.0418 2.49993H6.4585ZM6.4585 3.74993H16.0418C16.3945 3.74993 16.6668 4.02222 16.6668 4.37493V10.9081C16.6668 11.375 16.4931 11.8246 16.1794 12.1695L15.1214 13.3333H10.2085C10.0427 13.3333 9.8838 13.3992 9.7666 13.5164L9.16683 14.1161V13.9583C9.16681 13.7925 9.10096 13.6335 8.98375 13.5163C8.86655 13.3991 8.70758 13.3333 8.54183 13.3333H5.8335V4.37493C5.8335 4.25322 5.86768 4.14246 5.92464 4.04778L5.96696 3.99244C5.97638 3.98003 5.98534 3.96727 5.99381 3.9542C6.10706 3.82863 6.27058 3.74993 6.4585 3.74993ZM4.5835 5.8121V13.5416C4.5835 14.1098 5.057 14.5833 5.62516 14.5833H7.91683V15.6249C7.91688 15.7485 7.95356 15.8693 8.02224 15.9721C8.09093 16.0748 8.18852 16.1549 8.3027 16.2022C8.41688 16.2495 8.54252 16.2618 8.66374 16.2378C8.78495 16.2137 8.8963 16.1542 8.98372 16.0668L10.4673 14.5833H13.9845L13.0348 15.6282C12.9158 15.7589 12.7486 15.8333 12.5726 15.8333H10.2085C10.0427 15.8333 9.8838 15.8992 9.7666 16.0164L7.92741 17.8556C7.88822 17.8947 7.83506 17.9166 7.78011 17.9166H7.50016V16.4583C7.50015 16.2925 7.43429 16.1335 7.31709 16.0163C7.19988 15.8991 7.04092 15.8333 6.87516 15.8333H3.9585C3.60579 15.8333 3.3335 15.561 3.3335 15.2083V7.66676C3.3335 7.53181 3.37773 7.39979 3.45882 7.2916L4.5835 5.8121ZM9.78206 6.24098C9.61645 6.24357 9.45863 6.31178 9.34327 6.43065C9.22791 6.54952 9.16445 6.70931 9.16683 6.87493V10.2083C9.16566 10.2911 9.18096 10.3733 9.21184 10.4502C9.24273 10.527 9.28858 10.597 9.34673 10.656C9.40488 10.7149 9.47418 10.7618 9.55059 10.7937C9.627 10.8257 9.709 10.8422 9.79183 10.8422C9.87466 10.8422 9.95666 10.8257 10.0331 10.7937C10.1095 10.7618 10.1788 10.7149 10.2369 10.656C10.2951 10.597 10.3409 10.527 10.3718 10.4502C10.4027 10.3733 10.418 10.2911 10.4168 10.2083V6.87493C10.418 6.79128 10.4024 6.70824 10.3709 6.63073C10.3395 6.55322 10.2927 6.48281 10.2335 6.4237C10.1743 6.36458 10.1039 6.31794 10.0263 6.28656C9.94878 6.25517 9.86571 6.23967 9.78206 6.24098ZM13.1154 6.24098C12.9498 6.24357 12.792 6.31178 12.6766 6.43065C12.5612 6.54952 12.4978 6.70931 12.5002 6.87493V10.2083C12.499 10.2911 12.5143 10.3733 12.5452 10.4502C12.5761 10.527 12.6219 10.597 12.6801 10.656C12.7382 10.7149 12.8075 10.7618 12.8839 10.7937C12.9603 10.8257 13.0423 10.8422 13.1252 10.8422C13.208 10.8422 13.29 10.8257 13.3664 10.7937C13.4428 10.7618 13.5121 10.7149 13.5703 10.656C13.6284 10.597 13.6743 10.527 13.7051 10.4502C13.736 10.3733 13.7513 10.2911 13.7502 10.2083V6.87493C13.7514 6.79128 13.7358 6.70824 13.7043 6.63073C13.6728 6.55322 13.6261 6.48281 13.5669 6.4237C13.5077 6.36458 13.4372 6.31794 13.3597 6.28656C13.2821 6.25517 13.199 6.23967 13.1154 6.24098Z" fill="white"/>
</svg>
