<svg width="18" height="15" viewBox="0 0 18 15" fill="none" xmlns="http://www.w3.org/2000/svg">
<path d="M12.0835 0C9.82038 0 7.98374 1.82864 7.9347 4.0804C5.93377 3.84042 4.6308 3.09229 3.83151 2.35514C2.94513 1.53766 2.66452 0.811361 2.66452 0.811361C2.62356 0.708142 2.55583 0.6177 2.46831 0.549341C2.3808 0.480981 2.27665 0.437171 2.16658 0.422418C2.05651 0.407665 1.9445 0.422502 1.84207 0.465402C1.73965 0.508302 1.65049 0.577716 1.58379 0.666504C1.58379 0.666504 0.833467 1.66667 0.833467 3.125C0.833467 3.95874 1.09671 4.57565 1.41045 5.09847C1.3989 5.09306 1.32093 5.06592 1.32093 5.06592C1.22132 5.01618 1.11023 4.99396 0.999154 5.00154C0.888074 5.00912 0.781035 5.04623 0.689104 5.10904C0.597173 5.17185 0.523687 5.25807 0.476244 5.3588C0.4288 5.45952 0.409121 5.57109 0.419242 5.68197C0.419242 5.68197 0.659802 7.44035 2.31296 8.72559L2.14043 8.76872C2.04678 8.7921 1.95982 8.83685 1.88636 8.89946C1.8129 8.96208 1.75494 9.04086 1.71702 9.12962C1.6791 9.21839 1.66225 9.31473 1.6678 9.41109C1.67335 9.50746 1.70114 9.60123 1.74899 9.68506C1.74899 9.68506 2.02932 10.1593 2.61651 10.6584C2.96465 10.9543 3.47608 11.2597 4.07891 11.5422C3.33858 11.8127 2.23464 12.0833 0.625133 12.0833C0.50503 12.0833 0.387466 12.1179 0.286506 12.183C0.185546 12.248 0.105465 12.3408 0.0558435 12.4501C0.00622211 12.5595 -0.0108384 12.6809 0.00670313 12.7997C0.0242446 12.9185 0.0756453 13.0297 0.154756 13.1201C0.154756 13.1201 0.632352 13.6463 1.57647 14.104C2.52058 14.5618 3.97491 15 6.0418 15C9.67501 15 12.2854 13.2571 13.9145 11.0482C15.5436 8.83921 16.2501 6.19213 16.2501 4.16667C16.2501 4.03814 16.2421 3.91143 16.2306 3.78581C17.1103 2.93817 17.4404 2.30093 17.4562 2.26969C17.5354 2.11094 17.5059 1.92029 17.3829 1.79362C17.2604 1.66654 17.0706 1.63075 16.9093 1.70492L16.8418 1.73584C16.7839 1.76251 16.7259 1.78934 16.6676 1.81559C16.8372 1.54518 16.971 1.2562 17.0639 0.957031C17.1156 0.792031 17.0598 0.611224 16.9231 0.504557C16.7865 0.397891 16.5982 0.386471 16.4503 0.476888C15.9411 0.7864 15.4529 1.00308 14.9448 1.14827C14.197 0.438947 13.1905 0 12.0835 0ZM12.0835 1.25C13.7015 1.25 15.0001 2.54868 15.0001 4.16667C15.0001 5.8912 14.3525 8.34829 12.9087 10.306C11.4649 12.2637 9.28359 13.75 6.0418 13.75C4.47297 13.75 3.42938 13.4662 2.64743 13.1592C3.46653 13.032 4.17178 12.8622 4.67868 12.666C5.55771 12.3257 6.03204 11.9328 6.03203 11.9328C6.11904 11.8581 6.18383 11.7609 6.21931 11.6519C6.2548 11.5429 6.25961 11.4262 6.23323 11.3146C6.20685 11.2031 6.15029 11.1009 6.06973 11.0193C5.98918 10.9377 5.88773 10.8799 5.7765 10.8521C4.64203 10.5684 3.91444 10.1097 3.45798 9.72738L4.10983 9.56462C4.23875 9.53244 4.35405 9.46003 4.43902 9.35788C4.52399 9.25574 4.5742 9.12918 4.58236 8.99656C4.59052 8.86395 4.55622 8.73218 4.48442 8.62038C4.41262 8.50859 4.30707 8.42258 4.18308 8.37484C2.83094 7.85479 2.26315 7.11932 1.97279 6.50309C2.32611 6.57624 2.65509 6.66667 3.12513 6.66667C3.26589 6.66655 3.40248 6.61893 3.5128 6.53152C3.62313 6.44411 3.70072 6.32202 3.73301 6.18502C3.76531 6.04803 3.75042 5.90414 3.69076 5.77665C3.63109 5.64917 3.53015 5.54556 3.40427 5.48258C3.40427 5.48258 2.08347 4.875 2.08347 3.125C2.08347 2.81081 2.17048 2.61181 2.23402 2.37386C2.45201 2.66681 2.63167 2.94941 2.98353 3.27393C4.05631 4.26331 5.82945 5.27215 8.50843 5.41585C8.5932 5.42038 8.67801 5.40758 8.75767 5.37826C8.83733 5.34893 8.91019 5.30369 8.97179 5.24528C9.0334 5.18688 9.08246 5.11653 9.11598 5.03855C9.14951 4.96056 9.1668 4.87656 9.1668 4.79167V4.16667C9.1668 2.54868 10.4655 1.25 12.0835 1.25Z" fill="white"/>
</svg>
