<svg width="20" height="20" viewBox="0 0 20 20" fill="none" xmlns="http://www.w3.org/2000/svg">
<path d="M13.3335 2.5C11.0704 2.5 9.23374 4.32864 9.1847 6.5804C7.18377 6.34042 5.8808 5.59229 5.08151 4.85514C4.19513 4.03766 3.91452 3.31136 3.91452 3.31136C3.87356 3.20814 3.80583 3.1177 3.71831 3.04934C3.6308 2.98098 3.52665 2.93717 3.41658 2.92242C3.30651 2.90767 3.1945 2.9225 3.09207 2.9654C2.98965 3.0083 2.90049 3.07772 2.83379 3.1665C2.83379 3.1665 2.08347 4.16667 2.08347 5.625C2.08347 6.45874 2.34671 7.07565 2.66045 7.59847C2.6489 7.59306 2.57093 7.56592 2.57093 7.56592C2.47132 7.51618 2.36023 7.49396 2.24915 7.50154C2.13807 7.50912 2.03104 7.54623 1.9391 7.60904C1.84717 7.67185 1.77369 7.75807 1.72624 7.8588C1.6788 7.95952 1.65912 8.07109 1.66924 8.18197C1.66924 8.18197 1.9098 9.94035 3.56296 11.2256L3.39043 11.2687C3.29678 11.2921 3.20982 11.3368 3.13636 11.3995C3.0629 11.4621 3.00494 11.5409 2.96702 11.6296C2.9291 11.7184 2.91225 11.8147 2.9178 11.9111C2.92335 12.0075 2.95114 12.1012 2.99899 12.1851C2.99899 12.1851 3.27932 12.6593 3.86651 13.1584C4.21465 13.4543 4.72608 13.7597 5.32891 14.0422C4.58858 14.3127 3.48464 14.5833 1.87513 14.5833C1.75503 14.5833 1.63747 14.6179 1.53651 14.683C1.43555 14.748 1.35546 14.8408 1.30584 14.9501C1.25622 15.0595 1.23916 15.1809 1.2567 15.2997C1.27424 15.4185 1.32565 15.5297 1.40476 15.6201C1.40476 15.6201 1.88235 16.1463 2.82647 16.604C3.77058 17.0618 5.22491 17.5 7.2918 17.5C10.925 17.5 13.5354 15.7571 15.1645 13.5482C16.7936 11.3392 17.5001 8.69213 17.5001 6.66667C17.5001 6.53814 17.4921 6.41143 17.4806 6.28581C18.3603 5.43817 18.6904 4.80093 18.7062 4.76969C18.7854 4.61094 18.7559 4.42029 18.6329 4.29362C18.5104 4.16654 18.3206 4.13075 18.1593 4.20492L18.0918 4.23584C18.0339 4.26251 17.9759 4.28934 17.9176 4.31559C18.0872 4.04518 18.221 3.7562 18.3139 3.45703C18.3656 3.29203 18.3098 3.11122 18.1731 3.00456C18.0365 2.89789 17.8482 2.88647 17.7003 2.97689C17.1911 3.2864 16.7029 3.50308 16.1948 3.64827C15.447 2.93895 14.4405 2.5 13.3335 2.5ZM13.3335 3.75C14.9515 3.75 16.2501 5.04868 16.2501 6.66667C16.2501 8.3912 15.6025 10.8483 14.1587 12.806C12.7149 14.7637 10.5336 16.25 7.2918 16.25C5.72297 16.25 4.67938 15.9662 3.89743 15.6592C4.71653 15.532 5.42178 15.3622 5.92868 15.166C6.80771 14.8257 7.28204 14.4328 7.28203 14.4328C7.36904 14.3581 7.43383 14.2609 7.46931 14.1519C7.5048 14.0429 7.50961 13.9262 7.48323 13.8146C7.45685 13.7031 7.40029 13.6009 7.31973 13.5193C7.23918 13.4377 7.13773 13.3799 7.0265 13.3521C5.89203 13.0684 5.16444 12.6097 4.70798 12.2274L5.35983 12.0646C5.48875 12.0324 5.60405 11.96 5.68902 11.8579C5.77399 11.7557 5.8242 11.6292 5.83236 11.4966C5.84052 11.3639 5.80622 11.2322 5.73442 11.1204C5.66262 11.0086 5.55707 10.9226 5.43308 10.8748C4.08094 10.3548 3.51315 9.61932 3.22279 9.00309C3.57611 9.07624 3.90509 9.16667 4.37513 9.16667C4.51589 9.16655 4.65248 9.11893 4.7628 9.03152C4.87313 8.94411 4.95072 8.82202 4.98301 8.68502C5.01531 8.54803 5.00042 8.40414 4.94076 8.27665C4.88109 8.14917 4.78015 8.04556 4.65427 7.98258C4.65427 7.98258 3.33347 7.375 3.33347 5.625C3.33347 5.31081 3.42048 5.11181 3.48402 4.87386C3.70201 5.16681 3.88167 5.44941 4.23353 5.77393C5.30631 6.76331 7.07945 7.77215 9.75843 7.91585C9.8432 7.92038 9.92801 7.90758 10.0077 7.87826C10.0873 7.84893 10.1602 7.80369 10.2218 7.74528C10.2834 7.68688 10.3325 7.61653 10.366 7.53855C10.3995 7.46056 10.4168 7.37656 10.4168 7.29167V6.66667C10.4168 5.04868 11.7155 3.75 13.3335 3.75Z" fill="white"/>
</svg>
