<svg width="16" height="17" viewBox="0 0 16 17" fill="none" xmlns="http://www.w3.org/2000/svg">
<path d="M4.375 5.29034e-05C4.32824 -0.000555482 4.28156 0.00408511 4.23584 0.0138875C3.74036 0.0516257 3.29902 0.282009 2.98421 0.634005C2.94845 0.664467 2.91624 0.698864 2.88818 0.736544L0.377604 4.03814C0.376785 4.03949 0.375971 4.04085 0.375163 4.04221C0.13209 4.3665 0 4.761 0 5.16688V12.7084C0 13.7365 0.846875 14.5834 1.875 14.5834H4.16667V16.0417C4.16668 16.2075 4.23254 16.3664 4.34974 16.4836C4.46695 16.6008 4.62591 16.6667 4.79167 16.6667H5.69661C6.08333 16.6667 6.45439 16.5128 6.7277 16.2395L8.38379 14.5834H10.4891C11.0172 14.5834 11.5207 14.3598 11.8758 13.9698L15.0212 10.5103H15.0203C15.5433 9.93528 15.8333 9.18551 15.8333 8.40826V1.87505C15.8333 0.846927 14.9865 5.29034e-05 13.9583 5.29034e-05H4.375ZM4.375 1.25005H13.9583C14.311 1.25005 14.5833 1.52234 14.5833 1.87505V8.40826C14.5833 8.87517 14.4096 9.32467 14.0959 9.66965L13.0379 10.8334H8.125C7.95925 10.8334 7.8003 10.8993 7.68311 11.0165L7.08333 11.6163V11.4584C7.08332 11.2926 7.01746 11.1337 6.90026 11.0165C6.78305 10.8993 6.62409 10.8334 6.45833 10.8334H3.75V1.87505C3.75 1.75334 3.78418 1.64258 3.84115 1.5479L3.88346 1.49257C3.89289 1.48016 3.90185 1.4674 3.91032 1.45432C4.02356 1.32875 4.18708 1.25005 4.375 1.25005ZM2.5 3.31223V11.0417C2.5 11.6099 2.9735 12.0834 3.54167 12.0834H5.83333V13.1251C5.83338 13.2486 5.87006 13.3694 5.93875 13.4722C6.00743 13.5749 6.10503 13.655 6.21921 13.7023C6.33339 13.7496 6.45902 13.762 6.58024 13.7379C6.70146 13.7138 6.81281 13.6543 6.90023 13.5669L8.38379 12.0834H11.901L10.9513 13.1283C10.8323 13.2591 10.6651 13.3334 10.4891 13.3334H8.125C7.95925 13.3334 7.8003 13.3993 7.68311 13.5165L5.84391 15.3557C5.80473 15.3949 5.75157 15.4167 5.69661 15.4167H5.41667V13.9584C5.41665 13.7926 5.3508 13.6337 5.23359 13.5165C5.11638 13.3993 4.95742 13.3334 4.79167 13.3334H1.875C1.52229 13.3334 1.25 13.0611 1.25 12.7084V5.16688C1.25 5.03193 1.29423 4.89991 1.37533 4.79172L2.5 3.31223ZM7.69857 3.7411C7.53295 3.74369 7.37513 3.81191 7.25977 3.93077C7.14442 4.04964 7.08096 4.20943 7.08333 4.37505V7.70839C7.08216 7.79121 7.09746 7.87343 7.12835 7.95029C7.15923 8.02714 7.20508 8.09709 7.26323 8.15607C7.32139 8.21506 7.39068 8.26189 7.46709 8.29386C7.5435 8.32583 7.6255 8.34229 7.70833 8.34229C7.79116 8.34229 7.87316 8.32583 7.94957 8.29386C8.02599 8.26189 8.09528 8.21506 8.15343 8.15607C8.21159 8.09709 8.25744 8.02714 8.28832 7.95029C8.3192 7.87343 8.3345 7.79121 8.33333 7.70839V4.37505C8.33453 4.2914 8.31893 4.20836 8.28744 4.13085C8.25596 4.05334 8.20923 3.98294 8.15004 3.92382C8.09084 3.8647 8.02038 3.81806 7.94283 3.78668C7.86528 3.75529 7.78222 3.73979 7.69857 3.7411ZM11.0319 3.7411C10.8663 3.74369 10.7085 3.81191 10.5931 3.93077C10.4777 4.04964 10.4143 4.20943 10.4167 4.37505V7.70839C10.4155 7.79121 10.4308 7.87343 10.4617 7.95029C10.4926 8.02714 10.5384 8.09709 10.5966 8.15607C10.6547 8.21506 10.724 8.26189 10.8004 8.29386C10.8768 8.32583 10.9588 8.34229 11.0417 8.34229C11.1245 8.34229 11.2065 8.32583 11.2829 8.29386C11.3593 8.26189 11.4286 8.21506 11.4868 8.15607C11.5449 8.09709 11.5908 8.02714 11.6217 7.95029C11.6525 7.87343 11.6678 7.79121 11.6667 7.70839V4.37505C11.6679 4.2914 11.6523 4.20836 11.6208 4.13085C11.5893 4.05334 11.5426 3.98294 11.4834 3.92382C11.4242 3.8647 11.3537 3.81806 11.2762 3.78668C11.1986 3.75529 11.1156 3.73979 11.0319 3.7411Z" fill="white"/>
</svg>
